<svg xmlns="http://www.w3.org/2000/svg" viewBox="0 0 28 35" x="0px" y="0px"><title>23_Artboard 1</title><g><rect x="16.327" y="5.686" width="6.234" height="11.145"/><path d="M2,4.063V19.886a2,2,0,0,0,2,2h7.9v2.276H7.132V26.01h7.127V2.046L4,2.063A2,2,0,0,0,2,4.063Zm2.021.126H12.26V18.163H4.021Z"/><rect x="16.259" y="24.163" width="4.609" height="1.848"/><path d="M24,2.063H16.259V4.189h7.762V18.163H16.259v3.723H24a2,2,0,0,0,2-2V4.063A2,2,0,0,0,24,2.063Z"/></g><text x="0" y="43" fill="#000000" font-size="5px" font-weight="bold" font-family="'Helvetica Neue', Helvetica, Arial-Unicode, Arial, Sans-serif">Created by Iconographer</text><text x="0" y="48" fill="#000000" font-size="5px" font-weight="bold" font-family="'Helvetica Neue', Helvetica, Arial-Unicode, Arial, Sans-serif">from the Noun Project</text></svg>